<svg id="visual" viewBox="0 0 960 540" width="960" height="540" xmlns="http://www.w3.org/2000/svg" xmlns:xlink="http://www.w3.org/1999/xlink" version="1.1"><g transform="translate(871.5963393962285 504.0580942540863)"><path d="M165.5 -226.1C218.1 -256.4 266.7 -219.2 280.4 -170.3C294.2 -121.3 273.1 -60.7 318 25.9C362.9 112.5 473.7 225 457.3 269.3C440.9 313.6 297.2 289.7 199.8 258.5C102.3 227.2 51.2 188.6 -14.1 213C-79.3 237.4 -158.7 324.8 -170.1 306.4C-181.5 288 -124.9 163.7 -96.6 95C-68.3 26.3 -68.1 13.2 -119.2 -29.5C-170.3 -72.2 -272.7 -144.3 -281.5 -179.3C-290.3 -214.2 -205.7 -211.9 -143.2 -175.8C-80.7 -139.7 -40.3 -69.9 8.1 -83.9C56.5 -97.9 113 -195.7 165.5 -226.1" fill="#b00c0c"></path></g></svg>