<svg id="visual" viewBox="0 0 960 540" width="960" height="540" xmlns="http://www.w3.org/2000/svg" xmlns:xlink="http://www.w3.org/1999/xlink" version="1.1"><g><g transform="translate(536 350)"><path d="M0 -70L60.6 -35L60.6 35L0 70L-60.6 35L-60.6 -35Z" fill="#d79c9c"></path></g><g transform="translate(246 453)"><path d="M0 -62L53.7 -31L53.7 31L0 62L-53.7 31L-53.7 -31Z" fill="#d79c9c"></path></g><g transform="translate(168 90)"><path d="M0 -41L35.5 -20.5L35.5 20.5L0 41L-35.5 20.5L-35.5 -20.5Z" fill="#d79c9c"></path></g><g transform="translate(731 142)"><path d="M0 -42L36.4 -21L36.4 21L0 42L-36.4 21L-36.4 -21Z" fill="#d79c9c"></path></g><g transform="translate(681 327)"><path d="M0 -34L29.4 -17L29.4 17L0 34L-29.4 17L-29.4 -17Z" fill="#d79c9c"></path></g><g transform="translate(236 249)"><path d="M0 -32L27.7 -16L27.7 16L0 32L-27.7 16L-27.7 -16Z" fill="#d79c9c"></path></g><g transform="translate(740 458)"><path d="M0 -65L56.3 -32.5L56.3 32.5L0 65L-56.3 32.5L-56.3 -32.5Z" fill="#d79c9c"></path></g><g transform="translate(86 424)"><path d="M0 -68L58.9 -34L58.9 34L0 68L-58.9 34L-58.9 -34Z" fill="#d79c9c"></path></g><g transform="translate(564 187)"><path d="M0 -56L48.5 -28L48.5 28L0 56L-48.5 28L-48.5 -28Z" fill="#d79c9c"></path></g><g transform="translate(346 102)"><path d="M0 -68L58.9 -34L58.9 34L0 68L-58.9 34L-58.9 -34Z" fill="#d79c9c"></path></g><g transform="translate(96 259)"><path d="M0 -55L47.6 -27.5L47.6 27.5L0 55L-47.6 27.5L-47.6 -27.5Z" fill="#d79c9c"></path></g><g transform="translate(882 318)"><path d="M0 -68L58.9 -34L58.9 34L0 68L-58.9 34L-58.9 -34Z" fill="#d79c9c"></path></g><g transform="translate(392 251)"><path d="M0 -40L34.6 -20L34.6 20L0 40L-34.6 20L-34.6 -20Z" fill="#d79c9c"></path></g><g transform="translate(389 461)"><path d="M0 -52L45 -26L45 26L0 52L-45 26L-45 -26Z" fill="#d79c9c"></path></g><g transform="translate(864 89)"><path d="M0 -68L58.9 -34L58.9 34L0 68L-58.9 34L-58.9 -34Z" fill="#d79c9c"></path></g></g></svg>