<svg id="visual" viewBox="0 0 960 540" width="960" height="540" xmlns="http://www.w3.org/2000/svg" xmlns:xlink="http://www.w3.org/1999/xlink" version="1.1"><rect x="0" y="0" width="960" height="540" fill="#F9fafb"></rect><path d="M0 308L16 317.7C32 327.3 64 346.7 96 348.3C128 350 160 334 192 334C224 334 256 350 288 366.8C320 383.7 352 401.3 384 405.3C416 409.3 448 399.7 480 394C512 388.3 544 386.7 576 381.5C608 376.3 640 367.7 672 375.3C704 383 736 407 768 415.7C800 424.3 832 417.7 864 413.7C896 409.7 928 408.3 944 407.7L960 407L960 541L944 541C928 541 896 541 864 541C832 541 800 541 768 541C736 541 704 541 672 541C640 541 608 541 576 541C544 541 512 541 480 541C448 541 416 541 384 541C352 541 320 541 288 541C256 541 224 541 192 541C160 541 128 541 96 541C64 541 32 541 16 541L0 541Z" fill="#a20202"></path><path d="M0 358L16 356.2C32 354.3 64 350.7 96 357.5C128 364.3 160 381.7 192 389.7C224 397.7 256 396.3 288 402.2C320 408 352 421 384 413C416 405 448 376 480 375.2C512 374.3 544 401.7 576 403.2C608 404.7 640 380.3 672 367.8C704 355.3 736 354.7 768 362.2C800 369.7 832 385.3 864 386C896 386.7 928 372.3 944 365.2L960 358L960 541L944 541C928 541 896 541 864 541C832 541 800 541 768 541C736 541 704 541 672 541C640 541 608 541 576 541C544 541 512 541 480 541C448 541 416 541 384 541C352 541 320 541 288 541C256 541 224 541 192 541C160 541 128 541 96 541C64 541 32 541 16 541L0 541Z" fill="#8a0006"></path><path d="M0 463L16 453C32 443 64 423 96 411.2C128 399.3 160 395.7 192 396C224 396.3 256 400.7 288 405.7C320 410.7 352 416.3 384 420.7C416 425 448 428 480 436.5C512 445 544 459 576 450.3C608 441.7 640 410.3 672 397.2C704 384 736 389 768 401.2C800 413.3 832 432.7 864 438.7C896 444.7 928 437.3 944 433.7L960 430L960 541L944 541C928 541 896 541 864 541C832 541 800 541 768 541C736 541 704 541 672 541C640 541 608 541 576 541C544 541 512 541 480 541C448 541 416 541 384 541C352 541 320 541 288 541C256 541 224 541 192 541C160 541 128 541 96 541C64 541 32 541 16 541L0 541Z" fill="#720007"></path><path d="M0 445L16 442.8C32 440.7 64 436.3 96 438.3C128 440.3 160 448.7 192 459.3C224 470 256 483 288 478.3C320 473.7 352 451.3 384 450.5C416 449.7 448 470.3 480 475C512 479.7 544 468.3 576 456.7C608 445 640 433 672 435.8C704 438.7 736 456.3 768 462.8C800 469.3 832 464.7 864 466.8C896 469 928 478 944 482.5L960 487L960 541L944 541C928 541 896 541 864 541C832 541 800 541 768 541C736 541 704 541 672 541C640 541 608 541 576 541C544 541 512 541 480 541C448 541 416 541 384 541C352 541 320 541 288 541C256 541 224 541 192 541C160 541 128 541 96 541C64 541 32 541 16 541L0 541Z" fill="#5b0005"></path><path d="M0 500L16 502.2C32 504.3 64 508.7 96 508C128 507.3 160 501.7 192 499.8C224 498 256 500 288 495C320 490 352 478 384 473.7C416 469.3 448 472.7 480 473.2C512 473.7 544 471.3 576 473C608 474.7 640 480.3 672 488.2C704 496 736 506 768 512.7C800 519.3 832 522.7 864 515.3C896 508 928 490 944 481L960 472L960 541L944 541C928 541 896 541 864 541C832 541 800 541 768 541C736 541 704 541 672 541C640 541 608 541 576 541C544 541 512 541 480 541C448 541 416 541 384 541C352 541 320 541 288 541C256 541 224 541 192 541C160 541 128 541 96 541C64 541 32 541 16 541L0 541Z" fill="#440000"></path></svg>