<svg id="visual" viewBox="0 0 960 540" width="960" height="540" xmlns="http://www.w3.org/2000/svg" xmlns:xlink="http://www.w3.org/1999/xlink" version="1.1"><rect x="0" y="0" width="960" height="540" fill="#FFFFFF"></rect><defs><linearGradient id="grad1_0" x1="43.8%" y1="100%" x2="100%" y2="0%"><stop offset="14.444444444444446%" stop-color="#ba3b3b" stop-opacity="1"></stop><stop offset="85.55555555555554%" stop-color="#ba3b3b" stop-opacity="1"></stop></linearGradient></defs><defs><linearGradient id="grad1_1" x1="43.8%" y1="100%" x2="100%" y2="0%"><stop offset="14.444444444444446%" stop-color="#ba3b3b" stop-opacity="1"></stop><stop offset="85.55555555555554%" stop-color="#c85a54" stop-opacity="1"></stop></linearGradient></defs><defs><linearGradient id="grad1_2" x1="43.8%" y1="100%" x2="100%" y2="0%"><stop offset="14.444444444444446%" stop-color="#d5766e" stop-opacity="1"></stop><stop offset="85.55555555555554%" stop-color="#c85a54" stop-opacity="1"></stop></linearGradient></defs><defs><linearGradient id="grad1_3" x1="43.8%" y1="100%" x2="100%" y2="0%"><stop offset="14.444444444444446%" stop-color="#d5766e" stop-opacity="1"></stop><stop offset="85.55555555555554%" stop-color="#e09189" stop-opacity="1"></stop></linearGradient></defs><defs><linearGradient id="grad1_4" x1="43.8%" y1="100%" x2="100%" y2="0%"><stop offset="14.444444444444446%" stop-color="#eaaca6" stop-opacity="1"></stop><stop offset="85.55555555555554%" stop-color="#e09189" stop-opacity="1"></stop></linearGradient></defs><defs><linearGradient id="grad1_5" x1="43.8%" y1="100%" x2="100%" y2="0%"><stop offset="14.444444444444446%" stop-color="#eaaca6" stop-opacity="1"></stop><stop offset="85.55555555555554%" stop-color="#f3c8c3" stop-opacity="1"></stop></linearGradient></defs><defs><linearGradient id="grad1_6" x1="43.8%" y1="100%" x2="100%" y2="0%"><stop offset="14.444444444444446%" stop-color="#fae3e0" stop-opacity="1"></stop><stop offset="85.55555555555554%" stop-color="#f3c8c3" stop-opacity="1"></stop></linearGradient></defs><defs><linearGradient id="grad1_7" x1="43.8%" y1="100%" x2="100%" y2="0%"><stop offset="14.444444444444446%" stop-color="#fae3e0" stop-opacity="1"></stop><stop offset="85.55555555555554%" stop-color="#ffffff" stop-opacity="1"></stop></linearGradient></defs><defs><linearGradient id="grad2_0" x1="0%" y1="100%" x2="56.3%" y2="0%"><stop offset="14.444444444444446%" stop-color="#ba3b3b" stop-opacity="1"></stop><stop offset="85.55555555555554%" stop-color="#ba3b3b" stop-opacity="1"></stop></linearGradient></defs><defs><linearGradient id="grad2_1" x1="0%" y1="100%" x2="56.3%" y2="0%"><stop offset="14.444444444444446%" stop-color="#c85a54" stop-opacity="1"></stop><stop offset="85.55555555555554%" stop-color="#ba3b3b" stop-opacity="1"></stop></linearGradient></defs><defs><linearGradient id="grad2_2" x1="0%" y1="100%" x2="56.3%" y2="0%"><stop offset="14.444444444444446%" stop-color="#c85a54" stop-opacity="1"></stop><stop offset="85.55555555555554%" stop-color="#d5766e" stop-opacity="1"></stop></linearGradient></defs><defs><linearGradient id="grad2_3" x1="0%" y1="100%" x2="56.3%" y2="0%"><stop offset="14.444444444444446%" stop-color="#e09189" stop-opacity="1"></stop><stop offset="85.55555555555554%" stop-color="#d5766e" stop-opacity="1"></stop></linearGradient></defs><defs><linearGradient id="grad2_4" x1="0%" y1="100%" x2="56.3%" y2="0%"><stop offset="14.444444444444446%" stop-color="#e09189" stop-opacity="1"></stop><stop offset="85.55555555555554%" stop-color="#eaaca6" stop-opacity="1"></stop></linearGradient></defs><defs><linearGradient id="grad2_5" x1="0%" y1="100%" x2="56.3%" y2="0%"><stop offset="14.444444444444446%" stop-color="#f3c8c3" stop-opacity="1"></stop><stop offset="85.55555555555554%" stop-color="#eaaca6" stop-opacity="1"></stop></linearGradient></defs><defs><linearGradient id="grad2_6" x1="0%" y1="100%" x2="56.3%" y2="0%"><stop offset="14.444444444444446%" stop-color="#f3c8c3" stop-opacity="1"></stop><stop offset="85.55555555555554%" stop-color="#fae3e0" stop-opacity="1"></stop></linearGradient></defs><defs><linearGradient id="grad2_7" x1="0%" y1="100%" x2="56.3%" y2="0%"><stop offset="14.444444444444446%" stop-color="#ffffff" stop-opacity="1"></stop><stop offset="85.55555555555554%" stop-color="#fae3e0" stop-opacity="1"></stop></linearGradient></defs><g transform="translate(960, 540)"><path d="M-378 0C-346.5 -38.7 -315.1 -77.5 -301.2 -124.8C-287.3 -172 -291.1 -227.8 -267.3 -267.3C-243.5 -306.7 -192.3 -329.8 -143.1 -345.5C-94 -361.3 -47 -369.6 0 -378L0 0Z" fill="#fdf1f0"></path><path d="M-330.7 0C-303.2 -33.9 -275.7 -67.8 -263.5 -109.2C-251.4 -150.5 -254.7 -199.4 -233.9 -233.9C-213.1 -268.4 -168.2 -288.6 -125.2 -302.3C-82.2 -316.1 -41.1 -323.4 0 -330.7L0 0Z" fill="#f7d5d1"></path><path d="M-283.5 0C-259.9 -29.1 -236.3 -58.1 -225.9 -93.6C-215.5 -129 -218.3 -170.9 -200.5 -200.5C-182.6 -230 -144.2 -247.4 -107.3 -259.1C-70.5 -270.9 -35.2 -277.2 0 -283.5L0 0Z" fill="#efbab4"></path><path d="M-236.2 0C-216.6 -24.2 -196.9 -48.4 -188.2 -78C-179.6 -107.5 -181.9 -142.4 -167.1 -167.1C-152.2 -191.7 -120.2 -206.1 -89.5 -216C-58.7 -225.8 -29.4 -231 0 -236.2L0 0Z" fill="#e69f97"></path><path d="M-189 0C-173.3 -19.4 -157.5 -38.7 -150.6 -62.4C-143.7 -86 -145.5 -113.9 -133.6 -133.6C-121.8 -153.4 -96.1 -164.9 -71.6 -172.8C-47 -180.6 -23.5 -184.8 0 -189L0 0Z" fill="#db837c"></path><path d="M-141.7 0C-129.9 -14.5 -118.1 -29.1 -112.9 -46.8C-107.7 -64.5 -109.1 -85.4 -100.2 -100.2C-91.3 -115 -72.1 -123.7 -53.7 -129.6C-35.2 -135.5 -17.6 -138.6 0 -141.7L0 0Z" fill="#cf6861"></path><path d="M-94.5 0C-86.6 -9.7 -78.8 -19.4 -75.3 -31.2C-71.8 -43 -72.8 -57 -66.8 -66.8C-60.9 -76.7 -48.1 -82.5 -35.8 -86.4C-23.5 -90.3 -11.7 -92.4 0 -94.5L0 0Z" fill="#c14b47"></path><path d="M-47.2 0C-43.3 -4.8 -39.4 -9.7 -37.6 -15.6C-35.9 -21.5 -36.4 -28.5 -33.4 -33.4C-30.4 -38.3 -24 -41.2 -17.9 -43.2C-11.7 -45.2 -5.9 -46.2 0 -47.2L0 0Z" fill="#ba3b3b"></path></g><g transform="translate(0, 0)"><path d="M378 0C348.8 39.3 319.6 78.7 305.8 126.7C292 174.7 293.5 231.3 267.3 267.3C241.1 303.2 187.3 318.5 138.1 333.5C89 348.5 44.5 363.3 0 378L0 0Z" fill="#fdf1f0"></path><path d="M330.8 0C305.2 34.4 279.7 68.8 267.6 110.8C255.5 152.8 256.8 202.4 233.9 233.9C211 265.3 163.9 278.7 120.9 291.8C77.9 305 38.9 317.9 0 330.8L0 0Z" fill="#f7d5d1"></path><path d="M283.5 0C261.6 29.5 239.7 59 229.4 95C219 131 220.1 173.5 200.5 200.5C180.8 227.4 140.5 238.9 103.6 250.1C66.7 261.4 33.4 272.4 0 283.5L0 0Z" fill="#efbab4"></path><path d="M236.3 0C218 24.6 199.8 49.2 191.1 79.2C182.5 109.2 183.4 144.6 167.1 167.1C150.7 189.5 117.1 199.1 86.3 208.5C55.6 217.8 27.8 227 0 236.3L0 0Z" fill="#e69f97"></path><path d="M189 0C174.4 19.7 159.8 39.3 152.9 63.3C146 87.3 146.7 115.7 133.6 133.6C120.6 151.6 93.7 159.3 69.1 166.8C44.5 174.3 22.2 181.6 0 189L0 0Z" fill="#db837c"></path><path d="M141.8 0C130.8 14.8 119.9 29.5 114.7 47.5C109.5 65.5 110 86.7 100.2 100.2C90.4 113.7 70.2 119.4 51.8 125.1C33.4 130.7 16.7 136.2 0 141.8L0 0Z" fill="#cf6861"></path><path d="M94.5 0C87.2 9.8 79.9 19.7 76.5 31.7C73 43.7 73.4 57.8 66.8 66.8C60.3 75.8 46.8 79.6 34.5 83.4C22.2 87.1 11.1 90.8 0 94.5L0 0Z" fill="#c14b47"></path><path d="M47.3 0C43.6 4.9 40 9.8 38.2 15.8C36.5 21.8 36.7 28.9 33.4 33.4C30.1 37.9 23.4 39.8 17.3 41.7C11.1 43.6 5.6 45.4 0 47.3L0 0Z" fill="#ba3b3b"></path></g></svg>